<?xml version="1.0" encoding="UTF-8"?>
<svg width="24px" height="24px" viewBox="0 0 24 24" version="1.1" xmlns="http://www.w3.org/2000/svg" xmlns:xlink="http://www.w3.org/1999/xlink">
    <!-- Generator: Sketch 64 (93537) - https://sketch.com -->
    <title>main-icon</title>
    <desc>Created with Sketch.</desc>
    <g id="main-icon" stroke="none" stroke-width="1" fill="none" fill-rule="evenodd">
        <path d="M19.2221501,0 C19.4873666,0 19.7417205,0.10535684 19.9292569,0.292893219 L23.7071068,4.07074314 C23.8946432,4.25827952 24,4.51263344 24,4.77784993 L24,22 C24,23.1045695 23.1045695,24 22,24 L2,24 C0.8954305,24 0,23.1045695 0,22 L0,2 C0,0.8954305 0.8954305,0 2,0 L19.2221501,0 Z M18.325,1.349 L2,1.35 C1.67364992,1.35 1.40347354,1.59050819 1.35704767,1.90394776 L1.35,2 L1.35,22 C1.35,22.3263501 1.59050819,22.5965265 1.90394776,22.6429523 L2,22.65 L22,22.65 C22.3263501,22.65 22.5965265,22.4094918 22.6429523,22.0960522 L22.65,22 L22.65,5.675 L20,5.675 C19.1236113,5.675 18.4044245,5.00193887 18.3311482,4.14452541 L18.325,4 L18.325,1.349 Z M14.5857864,3.325 C15.2820996,3.325 15.8465729,3.88947332 15.8465729,4.58578644 C15.8465729,4.7768615 15.803199,4.96346459 15.7219037,5.13243239 L15.674,5.217 L15.675,9.58578644 C15.675,9.65043296 15.6942605,9.71309366 15.7296038,9.7660966 L15.7701903,9.81559614 L17.7701903,11.8155961 C18.4243185,12.4697243 18.4243185,13.5302757 17.7701903,14.1844039 C17.4953323,14.4592619 17.134786,14.628731 16.7513396,14.6668037 L16.5857864,14.675 L13,14.675 C12.842944,14.675 12.7119079,14.7864041 12.6816028,14.9345012 L12.675,15 L12.675,20 C12.675,20.3727922 12.3727922,20.675 12,20.675 C11.661098,20.675 11.3805302,20.4252415 11.3323187,20.0997466 L11.325,20 L11.325,15 C11.325,14.1236113 11.9980611,13.4044245 12.8554746,13.3311482 L13,13.325 L16.5857864,13.325 C16.6719818,13.325 16.7546468,13.290759 16.8155961,13.2298097 C16.9243851,13.1210208 16.9399263,12.9542952 16.86222,12.828953 L16.8155961,12.7701903 L14.8155961,10.7701903 C14.5407381,10.4953323 14.371269,10.134786 14.3331963,9.75133961 L14.325,9.58578644 L14.325,5 C14.325,4.89258732 14.3506017,4.78781425 14.3984259,4.69383902 L14.41,4.674 L9.589,4.674 L9.60157411,4.69383902 C9.6334569,4.75648917 9.65546303,4.82393837 9.66659125,4.89376935 L9.675,5 L9.675,9.58578644 C9.675,9.97449436 9.53988808,10.3492719 9.29567194,10.6473308 L9.18440386,10.7701903 L7.18440386,12.7701903 C7.12345454,12.8311396 7.08921356,12.9138046 7.08921356,13 C7.08921356,13.157056 7.20061771,13.2880921 7.34871473,13.3183972 L7.41421356,13.325 L9.27924078,13.325 C9.65203299,13.325 9.95424078,13.6272078 9.95424078,14 C9.95424078,14.338902 9.70448227,14.6194698 9.37898733,14.6676813 L9.27924078,14.675 L7.41421356,14.675 C6.48913661,14.675 5.73921356,13.925077 5.73921356,13 C5.73921356,12.6112921 5.87432548,12.2365146 6.11854162,11.9384556 L6.2298097,11.8155961 L8.2298097,9.81559614 C8.2755217,9.76988415 8.30621024,9.71195708 8.31869751,9.64948687 L8.325,9.58578644 L8.324,5.216 L8.28636641,5.15006096 C8.06972461,4.71720251 8.11786723,4.18563449 8.43079428,3.79664697 L8.52270292,3.6942758 C8.72536863,3.49161009 8.98992689,3.36506664 9.27195144,3.33304741 L9.41421356,3.325 L14.5857864,3.325 Z M22.052,4.325 L19.675,1.947 L19.675,4 C19.675,4.15705598 19.7864041,4.28809212 19.9345012,4.31839716 L20,4.325 L22.052,4.325 Z" id="形状" fill="#000000" fill-rule="nonzero"></path>
    </g>
</svg>