<?xml version="1.0" encoding="UTF-8"?>
<svg width="512" height="512"  viewBox="0 0 64 64" xmlns="http://www.w3.org/2000/svg">
    <title>Refresh</title>
    <desc>Refresh icon form Flaticon.com</desc>
    <g id="arrow-refresh-transfer-user_interface-interface" data-name="arrow-refresh-transfer-user interface-interface">
        <path d="M56.8,31.977a3.91,3.91,0,0,1,3.853,4.508A29,29,0,0,1,9,49.66H9V55a3,3,0,0,1-3,3H6a3,3,0,0,1-3-3V38H20a3,3,0,0,1,3,3h0a3,3,0,0,1-3,3H14.78A21.037,21.037,0,0,0,37.5,52.3,20.592,20.592,0,0,0,52.728,35.435,4.032,4.032,0,0,1,56.7,31.977Z" style="fill:#9bc9ff"/><path d="M58,6a3,3,0,0,0-3,3v5.34A29,29,0,0,0,3.367,27.372a4,4,0,1,0,7.911,1.2A20.992,20.992,0,0,1,49.22,20H44a3,3,0,0,0,0,6H61V9A3,3,0,0,0,58,6Z" style="fill:#9bc9ff"/><path d="M32,62a29.736,29.736,0,0,1-22-9.6V55a4,4,0,0,1-8,0V38a1,1,0,0,1,1-1H20a4,4,0,0,1,0,8H16.811a20.121,20.121,0,0,0,20.447,6.333A19.658,19.658,0,0,0,51.741,35.277a5.02,5.02,0,0,1,4.94-4.3h.127a4.91,4.91,0,0,1,4.836,5.661A29.826,29.826,0,0,1,32,62ZM9,48.66a1,1,0,0,1,.793.392A28,28,0,0,0,59.667,36.331a2.909,2.909,0,0,0-2.87-3.354h-.116a3.032,3.032,0,0,0-2.966,2.616A21.653,21.653,0,0,1,37.75,53.271a22.064,22.064,0,0,1-23.792-8.7A1,1,0,0,1,14.78,43H20a2,2,0,0,0,0-4H4V55a2,2,0,0,0,4,0V49.66a1,1,0,0,1,1-1Z" style="fill:#1e81ce"/><path d="M7.325,33A5,5,0,0,1,2.38,27.214,30.006,30.006,0,0,1,54,11.6V9a4,4,0,0,1,8,0V26a1,1,0,0,1-1,1H44a4,4,0,0,1,0-8h3.188a19.994,19.994,0,0,0-34.923,9.735A5.022,5.022,0,0,1,7.325,33ZM32,4A27.862,27.862,0,0,0,4.354,27.53,3.006,3.006,0,0,0,7.325,31a3.029,3.029,0,0,0,2.966-2.588,21.993,21.993,0,0,1,39.751-8.983A1,1,0,0,1,49.22,21H44a2,2,0,0,0,0,4H60V9a2,2,0,0,0-4,0v5.34a1,1,0,0,1-1.793.608A27.78,27.78,0,0,0,32,4Z" style="fill:#1e81ce"/>
    </g>
</svg>
