<?xml version="1.0" encoding="UTF-8"?>
<svg width="24px" height="24px" viewBox="0 0 24 24" version="1.1" xmlns="http://www.w3.org/2000/svg" xmlns:xlink="http://www.w3.org/1999/xlink">
    <!-- Generator: Sketch 64 (93537) - https://sketch.com -->
    <title>remove-dark</title>
    <desc>Created with Sketch.</desc>
    <g id="remove-dark" stroke="none" stroke-width="1" fill="none" fill-rule="evenodd">
        <path d="M6.675,9 L6.675,20.325 L17.325,20.325 L17.325,9 L18.675,9 L18.675,21.675 L5.325,21.675 L5.325,9 L6.675,9 Z M10.675,9 L10.675,18 L9.325,18 L9.325,9 L10.675,9 Z M14.675,9 L14.675,18 L13.325,18 L13.325,9 L14.675,9 Z M20.675,5.325 L20.675,8 L19.325,8 L19.325,6.675 L4.675,6.675 L4.675,8 L3.325,8 L3.325,5.325 L20.675,5.325 Z M15.675,2.325 L15.675,3.675 L8.325,3.675 L8.325,2.325 L15.675,2.325 Z" id="形状" fill="#FFFFFF" fill-rule="nonzero"></path>
    </g>
</svg>